<svg viewBox="0 0 29 16" fill="none" xmlns="http://www.w3.org/2000/svg">
                        <path fill-rule="evenodd" clip-rule="evenodd"
                          d="M20.0833 0.324148C20.5017 -0.102146 21.1868 -0.108834 21.6135 0.309208L28.6756 7.22813C28.8831 7.43144 29 7.70962 29 8C29 8.29038 28.8831 8.56856 28.6756 8.77187L21.6135 15.6908C21.1868 16.1088 20.5017 16.1021 20.0833 15.6759C19.6648 15.2496 19.6715 14.5651 20.0982 14.147L25.269 9.08108H1.08209C0.484468 9.08108 0 8.59706 0 8C0 7.40293 0.484468 6.91892 1.08209 6.91892H25.269L20.0982 1.85295C19.6715 1.43491 19.6648 0.750441 20.0833 0.324148Z"
                          fill="white" />
                      </svg>