<svg width="21" height="21" viewBox="0 0 21 21" fill="none" xmlns="http://www.w3.org/2000/svg">
<path d="M8.32184 13.8896L5.42224 10.8541C5.266 10.6905 5.05409 10.5986 4.83313 10.5986C4.61217 10.5986 4.40026 10.6905 4.24402 10.8541C4.08778 11.0176 4 11.2395 4 11.4708C4 11.5853 4.02155 11.6988 4.06342 11.8046C4.10529 11.9104 4.16665 12.0065 4.24402 12.0875L7.73691 15.7441C8.0628 16.0853 8.58924 16.0853 8.91513 15.7441L17.756 6.4889C17.9122 6.32534 18 6.10349 18 5.87218C18 5.64086 17.9122 5.41902 17.756 5.25546C17.5997 5.09189 17.3878 5 17.1669 5C16.9459 5 16.734 5.09189 16.5778 5.25546L8.32184 13.8896Z" fill="#1E2027"/>
</svg>