<svg width="26" height="26" viewBox="0 0 26 26" fill="none" xmlns="http://www.w3.org/2000/svg">
                          <path fill-rule="evenodd" clip-rule="evenodd"
                            d="M13 0C10.4288 0 7.91543 0.762437 5.77759 2.1909C3.63975 3.61935 1.97351 5.64968 0.989572 8.02512C0.00563271 10.4006 -0.251811 13.0144 0.249797 15.5362C0.751405 18.0579 1.98954 20.3743 3.80762 22.1924C5.6257 24.0105 7.94208 25.2486 10.4638 25.7502C12.9856 26.2518 15.5995 25.9944 17.9749 25.0104C20.3503 24.0265 22.3807 22.3603 23.8091 20.2224C25.2376 18.0846 26 15.5712 26 13C25.9934 9.55422 24.6216 6.25145 22.1851 3.81491C19.7486 1.37837 16.4458 0.00660747 13 0ZM18.2192 8.15643C17.9815 8.06324 17.7275 8.0186 17.4723 8.02512C16.9739 8.03785 16.5001 8.24476 16.152 8.60174C15.8039 8.95873 15.609 9.43756 15.6088 9.93617C15.6087 10.4348 15.8033 10.9137 16.1511 11.271C16.499 11.6282 16.9726 11.8354 17.4711 11.8485C17.7263 11.8552 17.9802 11.8107 18.218 11.7177C18.4557 11.6246 18.6724 11.485 18.8553 11.3069C19.0382 11.1287 19.1836 10.9158 19.2829 10.6806C19.3822 10.4454 19.4334 10.1927 19.4335 9.93745C19.4336 9.68216 19.3825 9.42943 19.2834 9.19418C19.1842 8.95892 19.039 8.7459 18.8562 8.56767C18.6734 8.38944 18.4568 8.24961 18.2192 8.15643ZM9.25624 8.17156C9.02325 8.07496 8.77351 8.0252 8.52129 8.02512C8.0119 8.02495 7.52332 8.22714 7.16301 8.5872C6.8027 8.94728 6.60018 9.43573 6.60001 9.94512C6.59984 10.4545 6.80203 10.9431 7.1621 11.3034C7.52217 11.6637 8.01062 11.8662 8.52001 11.8664C8.77223 11.8665 9.022 11.8169 9.25506 11.7204C9.48811 11.624 9.69989 11.4826 9.8783 11.3043C10.0567 11.126 10.1982 10.9143 10.2948 10.6813C10.3914 10.4484 10.4412 10.1986 10.4413 9.9464C10.4414 9.69417 10.3918 9.4444 10.2953 9.21135C10.1989 8.97829 10.0575 8.76652 9.8792 8.58811C9.70091 8.4097 9.48923 8.26816 9.25624 8.17156ZM11.9658 17.3893C12.6485 17.2524 13.3516 17.2524 14.0342 17.3893C15.0156 17.5916 15.9157 18.0781 16.6224 18.7884C16.8541 19.0188 17.064 19.2735 17.247 19.5436L19.3693 18.1138C18.8157 17.2964 18.1115 16.5918 17.2944 16.0376C16.4636 15.474 15.529 15.0811 14.545 14.8818C13.5253 14.6761 12.4749 14.6757 11.455 14.8805C10.4713 15.0828 9.53681 15.4759 8.70433 16.0376C7.88725 16.5904 7.18377 17.2948 6.63201 18.1125L8.75425 19.5423C8.93601 19.2722 9.14593 19.0175 9.38017 18.7845C9.61569 18.5503 9.87041 18.3404 10.1366 18.1586C10.4118 17.9743 10.7062 17.8156 11.0058 17.6876C11.3194 17.557 11.6419 17.4559 11.9658 17.3893Z"
                            fill="#E90035" />
                        </svg>