<svg width="28" height="28" viewBox="0 0 28 28" fill="none" xmlns="http://www.w3.org/2000/svg">
                          <path
                            d="M14.0013 27.3334C21.3533 27.3334 27.3346 21.3521 27.3346 14.0001C27.3346 6.64808 21.3533 0.666748 14.0013 0.666748C6.6493 0.666748 0.667969 6.64808 0.667969 14.0001C0.667969 21.3521 6.6493 27.3334 14.0013 27.3334ZM18.6586 10.0001C18.9245 9.99329 19.189 10.0398 19.4366 10.1369C19.6842 10.2339 19.9098 10.3796 20.1002 10.5652C20.2906 10.7509 20.4419 10.9728 20.5452 11.2179C20.6484 11.4629 20.7016 11.7262 20.7015 11.9921C20.7014 12.258 20.6481 12.5212 20.5446 12.7662C20.4412 13.0112 20.2898 13.233 20.0992 13.4186C19.9087 13.6041 19.683 13.7496 19.4353 13.8465C19.1877 13.9434 18.9231 13.9897 18.6573 13.9827C18.1381 13.9691 17.6447 13.7533 17.2824 13.3812C16.92 13.0091 16.7173 12.5102 16.7175 11.9908C16.7177 11.4714 16.9207 10.9726 17.2833 10.6007C17.6459 10.2289 18.1394 10.0133 18.6586 10.0001ZM12.924 19.2254C13.6351 19.3681 14.3675 19.3681 15.0786 19.2254C15.416 19.1561 15.752 19.0507 16.0786 18.9147C16.3906 18.7814 16.6973 18.6161 16.984 18.4241C17.2613 18.2347 17.5266 18.0161 17.772 17.7721C18.016 17.5294 18.2346 17.2641 18.424 16.9827L20.6346 18.4721C20.0599 19.3239 19.3271 20.0576 18.476 20.6334C17.6088 21.2186 16.6353 21.6281 15.6106 21.8387C14.5483 22.0521 13.4541 22.0517 12.392 21.8374C11.367 21.6298 10.3934 21.2205 9.52797 20.6334C8.67683 20.0562 7.94333 19.3222 7.36664 18.4707L9.5773 16.9814C9.76797 17.2627 9.98664 17.5281 10.228 17.7681C10.9641 18.5079 11.9018 19.0148 12.924 19.2254ZM9.33463 10.0001C9.59737 10.0002 9.85751 10.052 10.1002 10.1526C10.3429 10.2533 10.5634 10.4007 10.7491 10.5865C10.9348 10.7724 11.0821 10.993 11.1826 11.2357C11.2831 11.4785 11.3347 11.7387 11.3346 12.0014C11.3345 12.2641 11.2827 12.5243 11.1821 12.767C11.0815 13.0097 10.934 13.2302 10.7482 13.4159C10.5623 13.6016 10.3417 13.7489 10.099 13.8494C9.85621 13.9498 9.59603 14.0015 9.3333 14.0014C8.80269 14.0012 8.29388 13.7903 7.91881 13.415C7.54374 13.0396 7.33313 12.5307 7.3333 12.0001C7.33348 11.4695 7.54443 10.9607 7.91975 10.5856C8.29508 10.2105 8.80402 9.9999 9.33463 10.0001Z"
                            fill="#75E900" />
                        </svg>