<svg width="32" height="31" viewBox="0 0 32 31" fill="none" xmlns="http://www.w3.org/2000/svg">
<path d="M15.9999 25.6725L8.70049 30.2768C8.37803 30.4917 8.04091 30.5837 7.68913 30.5531C7.33735 30.5224 7.02955 30.3996 6.76571 30.1847C6.50188 29.9699 6.29668 29.7016 6.1501 29.3799C6.00353 29.057 5.97421 28.696 6.06216 28.297L7.99694 19.5949L1.53301 13.7475C1.23986 13.4712 1.05694 13.1563 0.984235 12.8027C0.910361 12.4503 0.932054 12.1053 1.04931 11.7677C1.16657 11.43 1.34246 11.1538 1.57698 10.9389C1.8115 10.724 2.13396 10.5859 2.54437 10.5245L11.075 9.74178L14.3729 1.54619C14.5195 1.17785 14.747 0.901589 15.0554 0.717418C15.3626 0.533248 15.6774 0.441162 15.9999 0.441162C16.3224 0.441162 16.6378 0.533248 16.9462 0.717418C17.2534 0.901589 17.4803 1.17785 17.6269 1.54619L20.9248 9.74178L29.4554 10.5245C29.8658 10.5859 30.1883 10.724 30.4228 10.9389C30.6573 11.1538 30.8332 11.43 30.9505 11.7677C31.0677 12.1053 31.09 12.4503 31.0173 12.8027C30.9434 13.1563 30.7599 13.4712 30.4668 13.7475L24.0029 19.5949L25.9376 28.297C26.0256 28.696 25.9963 29.057 25.8497 29.3799C25.7031 29.7016 25.4979 29.9699 25.2341 30.1847C24.9702 30.3996 24.6624 30.5224 24.3107 30.5531C23.9589 30.5837 23.6218 30.4917 23.2993 30.2768L15.9999 25.6725Z" fill="#FBA72A"/>
</svg>
