<svg width="29" height="16" viewBox="0 0 29 16" fill="none" xmlns="http://www.w3.org/2000/svg">
    <path fill-rule="evenodd" clip-rule="evenodd"
                    d="M8.91674 15.6758C8.49831 16.1021 7.8132 16.1088 7.38651 15.6908L0.324451 8.77187C0.116928 8.56855 2.02199e-06 8.29038 2.09815e-06 7.99999C2.1743e-06 7.70961 0.116928 7.43144 0.324452 7.22812L7.38651 0.309203C7.8132 -0.108839 8.49831 -0.10215 8.91674 0.324144C9.33518 0.750437 9.32848 1.43491 8.90179 1.85295L3.73102 6.91891L27.9179 6.91892C28.5155 6.91892 29 7.40294 29 8C29 8.59707 28.5155 9.08108 27.9179 9.08108L3.73102 9.08108L8.90179 14.147C9.32848 14.5651 9.33517 15.2496 8.91674 15.6758Z"
                    fill="#545B71" />
</svg>