<svg width="24" height="24" viewBox="0 0 24 24" fill="none" class=""
                      xmlns="http://www.w3.org/2000/svg">
                      <path
                        d="M1.95729 0.146499C0.885103 -0.389323 -0.301684 0.63372 0.0697115 1.77317L2.47809 9.15648C2.5462 9.36507 2.6702 9.55099 2.8366 9.69401C3.003 9.83704 3.20543 9.93171 3.42187 9.96771L12.9378 11.5536C13.4388 11.6376 13.4388 12.3576 12.9378 12.4416L3.42247 14.0275C3.20603 14.0635 3.0036 14.1582 2.8372 14.3012C2.6708 14.4442 2.5468 14.6301 2.47868 14.8387L0.0697115 22.2262C-0.302284 23.3663 0.885103 24.3893 1.95729 23.8535L23.2535 13.2079C24.2488 12.7098 24.2488 11.2896 23.2535 10.7921L1.95729 0.146499Z"
                        fill="#00A3FF" />
                    </svg>